

Release info:

General
Format : Matroska
Format version : Version 2
File size : 697 MiB
Duration : 1h 25mn
Overall bit rate : 1 144 Kbps

Video
ID : 1
Format : MPEG-4 Visual
Format profile : Advanced Simple@L5
Format settings, BVOP : Yes
Format settings, QPel : No
Format settings, GMC : No warppoints
Format settings, Matrix : Default (H.263)
Codec ID : V_MS/VFW/FOURCC / XVID
Codec ID/Hint : XviD
Duration : 1h 25mn
Bit rate : 993 Kbps
Width : 656 pixels
Height : 352 pixels
Display aspect ratio : 1.85:1
Frame rate mode : Constant
Frame rate : 25.000 fps
Color space : YUV
Chroma subsampling : 4:2:0
Bit depth : 8 bits
Scan type : Progressive
Compression mode : Lossy
Bits/(Pixel*Frame) : 0.172
Stream size : 605 MiB (87%)
Writing library : XviD 64
Language : English
Default : Yes
Forced : No

Audio
ID : 2
Format : MPEG Audio
Format version : Version 1
Format profile : Layer 3
Muxing mode : Header stripping
Codec ID : A_MPEG/L3
Codec ID/Hint : MP3
Duration : 1h 25mn
Bit rate mode : Constant
Bit rate : 128 Kbps
Channel(s) : 2 channels
Sampling rate : 48.0 KHz
Compression mode : Lossy
Stream size : 78.0 MiB (11%)
Language : English
Default : Yes
Forced : No


Source:
credit to original movie ripper (Thanks)

IMDB Info:

When a worldwide viral outbreak leads to a plague of zombies scouring the earth for the living, two survivors flee the chaos of America to a remote island...
Director: Adam Deyoe
Writers: Joshua Klausner (screenplay), Loren Semmens (screenplay),
Stars: Scott Peat, Marissa Merrill and James C. Burns 

Genres: Horror | Sci-Fi
 
http://www.imdb.com/title/tt1650042/

Screen Shot:
 
http://www.shotpix.com/images/61188507214232053710.png 
http://www.shotpix.com/images/65240993651407470989.png 
http://www.shotpix.com/images/05691248165389648986.png 
http://www.shotpix.com/images/92789782199979555514.png 
http://www.shotpix.com/images/94387413815665681183.png 
http://www.shotpix.com/images/96884197525658070704.png